<svg width="46" height="52" viewBox="0 0 46 52" fill="none" xmlns="http://www.w3.org/2000/svg">
<g id="&#225;&#132;&#140;&#225;&#133;&#161;&#225;&#132;&#137;&#225;&#133;&#161;&#225;&#134;&#171; 1 1" clip-path="url(#clip0_166_4354)">
<g id="Objects">
<g id="Group">
<path id="Vector" d="M45.9091 4.21804C45.8884 4.17657 45.8399 4.14892 45.7915 4.16274C45.3694 4.34246 44.9472 4.49452 44.5113 4.6535C43.3141 5.09587 42.0684 5.38618 40.8228 5.67649C39.3973 5.99444 37.944 6.22254 36.5254 6.57506C35.3005 6.87227 34.0826 7.2317 32.9061 7.70172C32.0203 8.04733 31.1484 8.42058 30.3318 8.89751C29.363 9.42974 28.581 10.2246 27.8198 11.0126C27.1209 11.7453 26.415 12.478 25.7991 13.2867C25.4531 13.7429 25.1624 14.2405 24.8856 14.7382C25.3216 13.0931 25.9306 11.4342 27.0447 10.1209C27.1278 10.0173 27.0309 9.89285 26.9133 9.94815C26.6295 10.0864 26.3666 10.2661 26.0967 10.432C24.0345 11.8282 22.1937 13.5632 20.609 15.4778C19.8339 16.4248 19.0865 17.3924 18.4706 18.45C17.7579 19.6873 17.2181 21.0213 16.8306 22.3968C16.789 21.5812 16.8582 20.7655 16.969 19.9568C16.9897 19.8117 17.0105 19.6734 17.0174 19.5283C17.0174 19.4315 17.0451 19.2933 16.9482 19.238C16.879 19.2034 16.8098 19.238 16.7614 19.2933C16.6991 19.3555 16.6506 19.4246 16.5953 19.4937C16.4845 19.6389 16.3738 19.7909 16.27 19.943C15.924 20.4338 15.6126 20.9522 15.3427 21.4913C14.6784 22.853 14.0694 24.2285 13.4535 25.6109C12.8307 26.9933 12.2563 28.4034 11.6543 29.7927C11.0799 31.106 10.4501 32.3985 9.79965 33.6773C9.44672 34.3616 9.08687 35.0459 8.66474 35.6956C8.48482 35.9721 8.29797 36.2417 8.10421 36.5043C8.13189 36.449 8.15957 36.4006 8.18725 36.3453C8.7547 35.2325 9.14223 34.0436 9.49516 32.8478C9.78581 32.0806 10.0765 31.3134 10.4017 30.5668C10.7823 29.7167 11.1214 28.8527 11.4467 27.9817C12.0971 26.3367 12.8861 24.7607 13.7857 23.2331C14.367 22.2447 14.9898 21.277 15.5572 20.2748C16.0901 19.3347 16.5122 18.3394 16.9966 17.3786C17.3565 16.6598 17.7233 15.9409 18.0347 15.2013C18.1246 14.994 18.2146 14.7797 18.2976 14.5654C18.3322 14.4617 18.3738 14.3511 18.3945 14.2405C18.3945 14.1991 18.4014 14.1507 18.3738 14.1092C18.3115 14.0124 18.1869 14.047 18.1108 14.1092C17.8893 14.2751 17.6817 14.4479 17.4672 14.6276C16.7752 15.2151 16.0555 15.7681 15.315 16.2934C16.8998 14.3719 18.5883 12.4088 19.3495 9.98962C19.4049 9.78226 19.5571 9.26385 19.4049 9.09105C19.3011 9.00119 19.1834 9.12561 19.1211 9.20164C18.4776 10.0034 17.7994 10.7776 17.0451 11.4757C17.3357 11.0195 17.6125 10.5495 17.8617 10.0656C18.2769 9.2362 18.6852 8.39984 19.0243 7.53583C19.4256 6.47829 19.7301 5.39309 20.0484 4.31481C20.3737 3.13976 20.6643 1.95088 21.0173 0.782741C21.0519 0.672148 21.0865 0.561554 21.1072 0.444049C21.1072 0.409489 21.1211 0.368016 21.1072 0.333456C21.0865 0.271247 21.0103 0.229775 20.9481 0.250511C20.8927 0.264335 20.8373 0.298896 20.7889 0.340368C20.083 1.00393 19.4533 1.74352 18.7751 2.42781C18.2769 2.93931 17.7717 3.45771 17.2942 3.98994C16.3323 5.08205 15.4742 6.27092 14.796 7.55657C14.1801 8.72471 13.7303 9.98962 13.4535 11.2822C13.0798 12.9687 12.9553 14.6967 12.72 16.404C12.4501 15.6644 12.2909 14.8834 12.2563 14.0885C12.2425 13.8258 12.2286 13.5493 12.2148 13.2659C12.2148 13.1346 12.2148 12.8512 12.0141 12.9134C11.9518 12.948 11.9172 13.0171 11.8826 13.0862C11.8203 13.2106 11.765 13.342 11.7096 13.4733C11.5366 13.8742 11.3428 14.2613 11.1629 14.6553C10.6508 15.7612 10.2079 16.9086 9.97957 18.1044C9.77889 19.0859 9.67509 20.0882 9.67509 21.0835C9.67509 22.4797 9.88961 23.8552 9.88269 25.2584C9.50208 24.6432 9.11455 24.0211 8.95539 23.3023C8.87235 22.9636 8.81006 22.6249 8.7547 22.2862C8.74086 22.1894 8.7201 22.0857 8.70626 21.989C8.69242 21.9199 8.69242 21.83 8.63706 21.7816C8.5125 21.6848 8.42945 21.8507 8.40177 21.9544C8.16649 22.7009 8.04884 23.4889 8.02116 24.2769C7.98656 25.0718 8.06269 25.8666 8.13881 26.6615C8.20801 27.3804 8.28413 28.0992 8.33257 28.825C8.29797 29.0877 8.28413 29.3503 8.26337 29.613C8.18033 30.9055 8.035 32.1981 7.78588 33.4699C7.61979 34.4929 7.40527 35.5021 7.04542 36.4836C6.83781 37.1817 6.56793 37.8591 6.22884 38.5019C6.17348 38.5918 6.12503 38.6885 6.07659 38.7784C5.40534 39.9742 4.78944 41.1976 4.11126 42.3865C3.70297 43.0846 3.30852 43.7966 2.94175 44.5223C2.67187 44.9923 2.42274 45.4693 2.20821 45.96C2.02137 46.3748 1.84144 46.7964 1.67536 47.218C1.61308 47.3977 1.43315 47.7572 1.53004 47.9369C1.67536 48.0682 1.793 47.8954 1.88296 47.7088C1.90373 47.688 1.92449 47.6673 1.93833 47.6466C1.99369 47.5705 2.04213 47.4945 2.08365 47.4116C2.19437 47.2249 2.3051 47.0452 2.4089 46.8655C2.86563 46.0706 3.30852 45.2688 3.75833 44.467C4.42959 43.2228 5.16313 42.0132 5.90359 40.8036C6.02815 40.6032 6.1458 40.4027 6.27036 40.1954C6.4226 39.9742 6.57485 39.7599 6.73401 39.5387C7.01774 39.1516 7.32223 38.7784 7.65439 38.4328C8.06269 37.9835 8.57478 37.548 9.05227 37.1679C9.74429 36.608 10.3671 35.9721 10.9761 35.3293C12.3947 33.7879 13.7303 32.1704 15.1143 30.5945C16.0347 29.4886 17.0243 28.4241 18.0831 27.4564C18.8651 26.7998 19.6747 26.1708 20.4982 25.5694C21.8131 24.6294 23.1971 23.793 24.505 22.8392C26.0482 21.7125 27.5568 20.5374 28.9409 19.2172C28.9824 19.1688 29.0308 19.1136 29.0031 19.0444C28.9755 18.9546 28.8647 18.9684 28.7886 18.9891C28.4772 19.0721 28.1796 19.1965 27.8752 19.2725C27.5638 19.3416 27.2454 19.4039 26.934 19.4592C26.0828 19.625 25.2109 19.6942 24.3459 19.7011C24.8372 19.5144 25.3355 19.3347 25.8337 19.1688C27.0724 18.7956 28.325 18.4776 29.536 18.0214C31.6882 17.2819 33.5705 15.9547 35.2936 14.4963C35.7157 14.1438 36.1448 13.7913 36.5323 13.3973C36.6015 13.3143 36.7053 13.2383 36.7191 13.1208C36.7191 12.9825 36.5531 12.9825 36.4493 13.0102C35.4804 13.2176 34.5047 13.418 33.522 13.5217C32.8715 13.5839 32.1934 13.6323 31.5429 13.5148C32.2972 13.2867 33.0584 13.0862 33.8334 12.9272C34.5531 12.7821 35.2798 12.6439 35.9787 12.4296C37.0652 12.1116 38.0409 11.4895 38.8713 10.7292C39.3696 10.2523 39.8332 9.74078 40.29 9.22238C40.7744 8.66941 41.2103 8.07497 41.7224 7.54275C42.3937 6.83771 43.1272 6.19489 43.9092 5.62119C44.4905 5.16499 45.1133 4.77792 45.7569 4.41158C45.8053 4.38393 45.8538 4.3701 45.9022 4.34246C45.9438 4.31481 45.9576 4.26642 45.9368 4.21804H45.9091ZM8.09037 37.0573C8.09037 37.0573 8.09037 37.0573 8.07653 37.0573H8.08345H8.09037ZM9.74429 29.6268C10.2771 27.885 10.7892 26.1362 11.3428 24.4013C11.8619 22.6249 12.3809 20.8485 12.9276 19.0859C13.5365 16.9985 14.021 14.8765 14.6645 12.7959C15.1213 11.3306 15.6334 9.87902 16.2077 8.45514C16.7267 7.16949 17.308 5.90458 18.0969 4.75718C17.4534 6.28475 16.789 7.79849 16.2285 9.35371C15.6887 10.7154 15.232 12.1047 14.8375 13.5148C13.8756 16.6321 13.2943 19.8531 12.367 22.9774C11.9726 24.3598 11.5297 25.7284 11.0522 27.0901C10.7131 28.0647 10.3117 29.0393 9.97957 30.0139C9.23912 32.1774 8.55402 34.3616 7.70976 36.4905C7.69592 36.5043 7.68207 36.5181 7.66823 36.532C7.64055 36.5251 7.61287 36.532 7.59211 36.5389C7.73744 36.0827 7.87584 35.6196 7.99348 35.1565C8.55402 33.304 9.16991 31.4723 9.74429 29.6268ZM30.5464 12.6369C29.7436 13.1899 28.9409 13.7429 28.1796 14.3442C26.9133 15.3534 25.6815 16.3971 24.4566 17.4547C23.7438 18.0906 23.1002 18.8025 22.429 19.4868C21.7646 20.178 21.0934 20.8554 20.4636 21.5742C19.6263 22.5074 18.7682 23.4267 17.9655 24.3944C17.2596 25.2238 16.616 26.1086 15.9794 26.9933C15.5088 27.6223 15.0313 28.2513 14.5884 28.901C14.0625 29.6545 13.5158 30.3871 12.9899 31.1406C12.4639 31.9009 11.9449 32.6612 11.4328 33.4284C11.1076 33.9123 10.7823 34.403 10.4017 34.8523C9.95189 35.3846 9.48824 35.9444 8.97615 36.4352C8.78238 36.608 8.59554 36.7808 8.40869 36.9605C8.40869 36.9605 8.40869 36.9605 8.40177 36.9605C8.31181 36.9398 8.31181 36.8568 8.33257 36.7877C8.69934 36.3799 9.06611 35.979 9.42596 35.5643C9.86193 35.0597 10.2564 34.5206 10.6232 33.9676C12.5746 31.1198 14.5469 28.279 16.6437 25.528C17.4257 24.5119 18.2353 23.5096 19.1073 22.5696C20.609 20.9798 22.1591 19.4453 23.7092 17.897C25.7091 15.9063 27.8406 14.0401 30.1588 12.4296C32.0065 11.1854 33.9718 10.1209 35.9995 9.20164C34.1033 10.2177 32.3318 11.455 30.5464 12.6439V12.6369Z" fill="#FAFAFA"/>
<path id="Vector_2" d="M32.2492 47.6121C32.1939 47.7296 32.1177 47.8332 32.0347 47.93C31.1628 48.8355 29.8756 49.3055 28.6577 49.5474C27.4259 49.8032 26.1595 49.5682 24.9554 49.2986C26.1526 48.3102 27.4951 47.1559 27.765 45.5453C28.0279 43.6169 26.2079 42.3658 24.4571 42.2829C18.6026 42.0893 13.3156 45.262 8.35385 48.006C6.47156 49.0359 4.37475 50.3562 2.13953 49.8377C1.82812 49.7479 1.50979 49.5474 1.41291 49.2157C1.41983 49.1258 1.37831 49.0221 1.28835 48.9806C0.596328 48.8424 1.08766 49.817 1.40599 49.9898C4.1533 51.5589 7.97324 48.6489 10.4022 47.3909C12.9073 46.0223 15.4955 44.6399 18.222 43.7482C20.4849 43.0777 23.163 42.3312 25.4951 42.9602C26.6854 43.3058 27.6127 44.55 27.2321 45.7942C26.7546 47.2319 25.5159 48.248 24.3602 49.1465C22.5402 48.7111 20.651 48.2341 18.7687 48.5037C17.7307 48.6903 16.5335 49.0567 16.0145 50.052C15.2048 51.6833 17.2324 52.0012 18.4089 51.9667C20.6164 51.8975 22.7201 50.9921 24.464 49.658C26.4432 50.1764 28.4016 50.37 30.3323 49.5544C31.2043 49.1535 32.1939 48.7111 32.6644 47.8194C32.8098 47.5498 32.3807 47.3287 32.2423 47.5982L32.2492 47.6121ZM18.3466 51.5036C17.7099 51.4552 16.5889 51.545 16.319 50.8331C16.2775 49.9345 17.274 49.4092 18.0213 49.1811C19.9382 48.6005 21.9589 49.0843 23.8551 49.5267C22.2565 50.6948 20.3396 51.4483 18.3466 51.5036Z" fill="#FAFAFA"/>
</g>
</g>
</g>
<defs>
<clipPath id="clip0_166_4354">
<rect width="44.9812" height="51.723" fill="white" transform="translate(0.935547 0.256836)"/>
</clipPath>
</defs>
</svg>
