<svg width="20" height="20" viewBox="0 0 20 20" fill="none" xmlns="http://www.w3.org/2000/svg">
    <path d="M8.7339 17.9168C8.54692 17.9168 8.38506 17.854 8.24831 17.7285C8.11156 17.603 8.0293 17.4467 8.00152 17.2597L7.75954 15.3783C7.53625 15.3035 7.30735 15.1988 7.07283 15.0642C6.83832 14.9296 6.62865 14.7854 6.44381 14.6315L4.70344 15.3655C4.52502 15.4435 4.34794 15.4526 4.17219 15.3927C3.99644 15.3329 3.85835 15.2207 3.75792 15.0562L2.50475 12.8735C2.40965 12.709 2.38027 12.5333 2.4166 12.3463C2.45292 12.1593 2.5464 12.0087 2.69704 11.8944L4.20346 10.755C4.18422 10.631 4.1706 10.5066 4.16258 10.3816C4.15457 10.2566 4.15056 10.1321 4.15056 10.0082C4.15056 9.88957 4.15457 9.7691 4.16258 9.64677C4.1706 9.52444 4.18422 9.39062 4.20346 9.24533L2.69704 8.10589C2.5464 7.99159 2.45159 7.84095 2.4126 7.65398C2.3736 7.46702 2.40432 7.29128 2.50475 7.12675L3.75792 4.96012C3.85835 4.79559 3.9951 4.68341 4.16819 4.62358C4.34126 4.56375 4.517 4.57283 4.69542 4.65083L6.43579 5.37679C6.63665 5.21759 6.85113 5.07202 7.07923 4.94008C7.30734 4.80812 7.53144 4.70208 7.75152 4.62195L8.00152 2.74056C8.0293 2.55359 8.11156 2.39734 8.24831 2.27181C8.38506 2.14627 8.54692 2.0835 8.7339 2.0835H11.2579C11.4449 2.0835 11.608 2.14627 11.7475 2.27181C11.8869 2.39734 11.9705 2.55359 11.9983 2.74056L12.2402 4.62998C12.4902 4.72078 12.7165 4.82682 12.919 4.94808C13.1214 5.06934 13.3257 5.21225 13.5319 5.37679L15.3044 4.65083C15.4828 4.57283 15.6585 4.56241 15.8316 4.61958C16.0047 4.67673 16.1414 4.78757 16.2419 4.9521L17.495 7.12675C17.5955 7.29128 17.6262 7.46702 17.5872 7.65398C17.5482 7.84095 17.4534 7.99159 17.3027 8.10589L15.7643 9.26935C15.7942 9.40398 15.8105 9.52978 15.8132 9.64677C15.8158 9.76375 15.8172 9.88155 15.8172 10.0001C15.8172 10.1134 15.8145 10.2285 15.8092 10.3455C15.8038 10.4625 15.7846 10.5963 15.7515 10.747L17.2739 11.8944C17.4245 12.0087 17.5194 12.1593 17.5584 12.3463C17.5974 12.5333 17.5666 12.709 17.4662 12.8735L16.213 15.0434C16.1126 15.2079 15.9724 15.3209 15.7924 15.3823C15.6123 15.4437 15.4331 15.4355 15.2547 15.3575L13.5319 14.6235C13.3257 14.788 13.1153 14.9336 12.9005 15.0602C12.6858 15.1868 12.4657 15.2902 12.2402 15.3703L11.9983 17.2597C11.9705 17.4467 11.8869 17.603 11.7475 17.7285C11.608 17.854 11.4449 17.9168 11.2579 17.9168H8.7339ZM9.16656 16.6668H10.8044L11.1041 14.4344C11.5293 14.3233 11.9179 14.1655 12.2699 13.9609C12.6219 13.7563 12.9614 13.4932 13.2884 13.1716L15.3589 14.0418L16.1794 12.6251L14.3717 11.263C14.4411 11.0472 14.4884 10.8356 14.5135 10.6284C14.5386 10.4211 14.5512 10.2117 14.5512 10.0001C14.5512 9.78327 14.5386 9.57387 14.5135 9.37193C14.4884 9.17002 14.4411 8.96382 14.3717 8.75335L16.1954 7.37514L15.3749 5.95848L13.2803 6.8415C13.0015 6.54341 12.6674 6.28006 12.2779 6.05143C11.8885 5.8228 11.4945 5.66093 11.096 5.56585L10.8332 3.33348H9.17937L8.90375 5.55783C8.47853 5.65826 8.0859 5.81211 7.72585 6.01937C7.36581 6.22664 7.02233 6.49373 6.69542 6.82066L4.6249 5.95848L3.80437 7.37514L5.60406 8.7165C5.53462 8.91414 5.48601 9.1198 5.45823 9.33348C5.43045 9.54716 5.41656 9.77205 5.41656 10.0082C5.41656 10.225 5.43045 10.4376 5.45823 10.646C5.48601 10.8543 5.53194 11.06 5.59604 11.263L3.80437 12.6251L4.6249 14.0418L6.6874 13.1668C7.00363 13.4916 7.34177 13.7576 7.70181 13.9649C8.06185 14.1722 8.45983 14.3313 8.89573 14.4425L9.16656 16.6668ZM10.0095 12.5001C10.7029 12.5001 11.2929 12.2568 11.7795 11.7702C12.2662 11.2835 12.5095 10.6935 12.5095 10.0001C12.5095 9.30678 12.2662 8.71677 11.7795 8.23012C11.2929 7.74348 10.7029 7.50016 10.0095 7.50016C9.3076 7.50016 8.71546 7.74348 8.23308 8.23012C7.75072 8.71677 7.50954 9.30678 7.50954 10.0001C7.50954 10.6935 7.75072 11.2835 8.23308 11.7702C8.71546 12.2568 9.3076 12.5001 10.0095 12.5001Z" fill="#787486"/>
</svg>
