<svg width="20" height="20" viewBox="0 0 20 20" fill="none" xmlns="http://www.w3.org/2000/svg">
    <path d="M9.37508 10.7078V13.4162C9.37508 13.5935 9.43491 13.742 9.55456 13.8617C9.67421 13.9813 9.82271 14.0411 10.0001 14.0411C10.1774 14.0411 10.3259 13.9813 10.4456 13.8617C10.5652 13.742 10.625 13.5935 10.625 13.4162V10.7078H13.3334C13.5107 10.7078 13.6592 10.648 13.7789 10.5283C13.8985 10.4087 13.9584 10.2602 13.9584 10.0828C13.9584 9.90548 13.8985 9.75698 13.7789 9.63733C13.6592 9.51767 13.5107 9.45785 13.3334 9.45785H10.625V6.74949C10.625 6.57214 10.5652 6.42365 10.4456 6.30399C10.3259 6.18434 10.1774 6.12451 10.0001 6.12451C9.82271 6.12451 9.67421 6.18434 9.55456 6.30399C9.43491 6.42365 9.37508 6.57214 9.37508 6.74949V9.45785H6.66673C6.48938 9.45785 6.34088 9.51767 6.22123 9.63733C6.10157 9.75698 6.04175 9.90548 6.04175 10.0828C6.04175 10.2602 6.10157 10.4087 6.22123 10.5283C6.34088 10.648 6.48938 10.7078 6.66673 10.7078H9.37508ZM4.42316 17.1661C4.00222 17.1661 3.64591 17.0203 3.35425 16.7286C3.06258 16.437 2.91675 16.0807 2.91675 15.6597V4.50593C2.91675 4.08499 3.06258 3.72868 3.35425 3.43701C3.64591 3.14535 4.00222 2.99951 4.42316 2.99951H15.577C15.9979 2.99951 16.3542 3.14535 16.6459 3.43701C16.9375 3.72868 17.0834 4.08499 17.0834 4.50593V15.6597C17.0834 16.0807 16.9375 16.437 16.6459 16.7286C16.3542 17.0203 15.9979 17.1661 15.577 17.1661H4.42316ZM4.42316 15.9162H15.577C15.6411 15.9162 15.6998 15.8895 15.7533 15.836C15.8067 15.7826 15.8334 15.7238 15.8334 15.6597V4.50593C15.8334 4.44182 15.8067 4.38305 15.7533 4.32962C15.6998 4.2762 15.6411 4.24949 15.577 4.24949H4.42316C4.35905 4.24949 4.30028 4.2762 4.24685 4.32962C4.19344 4.38305 4.16673 4.44182 4.16673 4.50593V15.6597C4.16673 15.7238 4.19344 15.7826 4.24685 15.836C4.30028 15.8895 4.35905 15.9162 4.42316 15.9162Z" fill="#787486"/>
</svg>
